<?xml version="1.0" standalone="no"?>
<!DOCTYPE svg PUBLIC "-//W3C//DTD SVG 20010904//EN"
 "http://www.w3.org/TR/2001/REC-SVG-20010904/DTD/svg10.dtd">
<svg version="1.0" xmlns="http://www.w3.org/2000/svg"
 width="32.000000pt" height="32.000000pt" viewBox="0 0 32.000000 32.000000"
 preserveAspectRatio="xMidYMid meet">

<g transform="translate(0.000000,32.000000) scale(0.100000,-0.100000)"
fill="#000000" stroke="none">
<path d="M125 281 c-107 -66 -121 -131 -49 -211 72 -79 167 -76 192 8 28 92 7
177 -50 208 -32 18 -58 17 -93 -5z m88 -96 c3 -33 9 -68 12 -77 4 -10 3 -18
-4 -18 -15 0 -32 36 -25 54 4 10 1 16 -9 16 -9 0 -18 -12 -22 -29 -3 -16 -14
-36 -24 -45 -16 -14 -20 -15 -30 -2 -15 18 -1 50 29 66 11 6 20 17 20 26 0 27
30 88 39 78 5 -5 11 -36 14 -69z"/>
<path d="M177 196 c-4 -10 -5 -21 -2 -24 9 -9 17 6 13 25 -3 17 -4 17 -11 -1z"/>
<path d="M132 128 c-7 -7 -12 -19 -12 -27 0 -11 5 -8 16 7 18 25 15 39 -4 20z"/>
</g>
</svg>
